<svg width="14" height="18" fill="none" xmlns="http://www.w3.org/2000/svg"><path fill-rule="evenodd" clip-rule="evenodd" d="M7 1.519c-3.006 0-5.444 2.376-5.444 5.315 0 2.149.981 4.237 2.196 5.976 1.18 1.7 2.533 3.007 3.249 3.645.715-.638 2.069-1.944 3.249-3.645 1.214-1.739 2.195-3.827 2.195-5.976 0-2.939-2.437-5.315-5.444-5.315zM0 6.834C0 3.06 3.134 0 7 0s7 3.06 7 6.834c0 2.582-1.167 4.966-2.464 6.834-1.304 1.868-2.79 3.288-3.54 3.956a1.506 1.506 0 01-1.992 0c-.75-.668-2.236-2.088-3.54-3.956C1.167 11.8 0 9.416 0 6.834zm7-1.519c-.859 0-1.556.684-1.556 1.519 0 .835.697 1.519 1.556 1.519.859 0 1.556-.684 1.556-1.519 0-.835-.697-1.519-1.556-1.519zM3.889 6.834c0-1.678 1.393-3.037 3.111-3.037 1.718 0 3.111 1.359 3.111 3.037S8.718 9.871 7 9.871c-1.718 0-3.111-1.359-3.111-3.037z" fill="url(#paint0_linear)"/><defs><linearGradient id="paint0_linear" x1="7" y1="0" x2="7" y2="18" gradientUnits="userSpaceOnUse"><stop stop-color="#B29457"/><stop offset="1" stop-color="#FBF7C8"/></linearGradient></defs></svg>