<svg width="48" height="27" fill="none" xmlns="http://www.w3.org/2000/svg"><path d="M.038 10.48c.071-.301.225-.604.462-.841C1.483 8.657 11.445 0 16.14 0c2.555 0 4.306 1.29 5.714 2.327.846.624 1.576 1.161 2.132 1.162.56 0 1.29-.538 2.136-1.162C27.529 1.29 29.28 0 31.836 0c4.695 0 14.657 8.657 15.639 9.639.257.257.424.577.487.919l.037.424c.019.47-.165.926-.524 1.286-.477.476-1.083 1.227-1.785 2.098-1.787 2.214-4.233 5.246-7.697 7.757-4.395 3.185-9.082 4.8-13.93 4.8-4.846 0-9.595-1.686-14.117-5.012-3.535-2.6-6.077-5.748-7.758-7.83-.62-.769-1.96-2.398-2.062-2.6-.095-.187-.176-.628-.088-1.001zm11.23 9.634c4.13 3.038 8.435 4.578 12.794 4.578 4.368 0 8.615-1.472 12.621-4.376 3.223-2.336 7.95-7.593 7.682-7.861-.09-.09-2.115.912-3.152 1.397-4.144 1.937-10.407 4.865-17.15 4.865-6.928 0-13.278-3-17.48-4.985-1.014-.478-2.819-1.415-2.844-1.282-.043.231 4.226 5.235 7.53 7.664zm27.486-7.58c0-.216-11.691-1.217-14.22-1.23-.359-.003-.717-.004-1.076-.004-2.725 0-14.284.906-14.284 1.182 0 .384 9.283 4.004 14.889 4.004 5.497 0 14.691-3.471 14.691-3.953zM4.375 10.396c1.253 0 2.9-.081 4.806-.148 1.625-.057 3.558-.279 5.604-.513 2.862-.328 5.82-.667 8.673-.667.363 0 .726 0 1.088.002 2.653.015 5.578.356 8.407.686 2.111.246 4.105.479 5.738.54 1.073.041 1.836.08 2.448.112.84.044 1.447.087 2.35.087.965 0 1.464-.115 1.15-.382-1.387-1.187-2.724-2.31-5.038-3.95-3.522-2.5-6.353-3.933-7.765-3.933-1.822 0-3.128.962-4.391 1.893-1.114.82-2.165 1.595-3.459 1.597-1.29-.002-2.342-.777-3.456-1.597-1.263-.93-2.569-1.893-4.39-1.893-1.413 0-4.243 1.434-7.766 3.933-2.242 1.59-3.907 2.764-5.13 3.987-.253.252.204.246 1.131.246z" fill="url(#paint0_linear)"/><defs><linearGradient id="paint0_linear" x1="24" y1="0" x2="24" y2="26.924" gradientUnits="userSpaceOnUse"><stop stop-color="#B29457"/><stop offset="1" stop-color="#FBF7C8"/></linearGradient></defs></svg>