<svg width="50" height="33" fill="none" xmlns="http://www.w3.org/2000/svg"><path d="M49.167 26.23H.833a.84.84 0 00-.833.847C0 30.342 2.617 33 5.833 33h38.334C47.382 33 50 30.342 50 27.077a.839.839 0 00-.833-.846zm-5 5.078H5.833c-2.012 0-3.696-1.456-4.082-3.385h46.498c-.386 1.929-2.07 3.385-4.082 3.385z" fill="url(#paint0_linear)"/><path d="M25 4.23c-11.947 0-21.667 9.87-21.667 22v.847a.84.84 0 00.834.846h41.666a.84.84 0 00.834-.846v-.846c0-12.13-9.72-22-21.667-22zm-20 22C5 15.035 13.973 5.924 25 5.924c11.028 0 20 9.11 20 20.308H5z" fill="url(#paint1_linear)"/><path d="M11.293 13.883a18.891 18.891 0 00-1.605 2.116l1.39.935c.44-.674.931-1.323 1.461-1.928l-1.246-1.123z" fill="url(#paint2_linear)"/><path d="M25 7.615c-4.68.003-9.136 1.798-12.546 5.054l1.142 1.232c3.1-2.96 7.15-4.59 11.405-4.593L25 7.615z" fill="url(#paint3_linear)"/><path d="M27.5 0h-5v1.692h5V0z" fill="url(#paint4_linear)"/><path d="M25.833.846h-1.666v4.23h1.666V.847z" fill="url(#paint5_linear)"/><defs><linearGradient id="paint0_linear" x1="25" y1="0" x2="25" y2="33" gradientUnits="userSpaceOnUse"><stop stop-color="#B29457"/><stop offset="1" stop-color="#FBF7C8"/></linearGradient><linearGradient id="paint1_linear" x1="25" y1="0" x2="25" y2="33" gradientUnits="userSpaceOnUse"><stop stop-color="#B29457"/><stop offset="1" stop-color="#FBF7C8"/></linearGradient><linearGradient id="paint2_linear" x1="25" y1="0" x2="25" y2="33" gradientUnits="userSpaceOnUse"><stop stop-color="#B29457"/><stop offset="1" stop-color="#FBF7C8"/></linearGradient><linearGradient id="paint3_linear" x1="25" y1="0" x2="25" y2="33" gradientUnits="userSpaceOnUse"><stop stop-color="#B29457"/><stop offset="1" stop-color="#FBF7C8"/></linearGradient><linearGradient id="paint4_linear" x1="25" y1="0" x2="25" y2="33" gradientUnits="userSpaceOnUse"><stop stop-color="#B29457"/><stop offset="1" stop-color="#FBF7C8"/></linearGradient><linearGradient id="paint5_linear" x1="25" y1="0" x2="25" y2="33" gradientUnits="userSpaceOnUse"><stop stop-color="#B29457"/><stop offset="1" stop-color="#FBF7C8"/></linearGradient></defs></svg>