<svg width="40" height="50" fill="none" xmlns="http://www.w3.org/2000/svg"><path d="M39.263 17.412A.735.735 0 0040 16.68V9.604a2.717 2.717 0 00-2.584-2.71C28.673 6.45 23.973 2.897 21.95.82A2.699 2.699 0 0020 0c-.743 0-1.436.291-1.95.82-2.023 2.078-6.723 5.63-15.466 6.073A2.716 2.716 0 000 9.604v20.421c0 5.881 3.185 11.362 8.312 14.303l8.34 4.783A6.723 6.723 0 0020 50a6.724 6.724 0 003.347-.889l8.34-4.783C36.816 41.387 40 35.906 40 30.025v-9.927a.735.735 0 00-.737-.732.735.735 0 00-.737.732v9.927c0 5.36-2.903 10.354-7.575 13.035l-8.341 4.783a5.262 5.262 0 01-5.22 0l-8.34-4.784c-4.673-2.68-7.576-7.674-7.576-13.034V9.605c0-.667.52-1.215 1.185-1.249 9.249-.468 14.277-4.284 16.45-6.517.235-.241.551-.374.891-.374.34 0 .656.133.89.374 2.174 2.233 7.202 6.05 16.45 6.517a1.248 1.248 0 011.185 1.248v7.076c0 .404.33.732.738.732z" fill="url(#paint0_linear)"/><path d="M4.71 19.365a.735.735 0 00-.738.733v9.927c0 4.476 2.424 8.647 6.326 10.886l8.34 4.783a2.743 2.743 0 002.723 0l8.341-4.783c3.902-2.24 6.326-6.41 6.326-10.886V12.304c0-.865-.65-1.598-1.51-1.705-6.613-.826-10.963-3.322-13.449-5.27a1.734 1.734 0 00-2.14 0c-2.484 1.948-6.834 4.444-13.446 5.27-.861.107-1.51.84-1.51 1.705v4.376c0 .404.33.732.737.732a.735.735 0 00.737-.732v-4.376c0-.128.094-.236.22-.251 6.949-.869 11.544-3.51 14.175-5.573a.255.255 0 01.315-.001c2.631 2.063 7.227 4.705 14.177 5.574.125.015.22.123.22.25v17.722c0 3.954-2.142 7.64-5.589 9.617l-8.34 4.783a1.274 1.274 0 01-1.25 0l-8.34-4.783c-3.447-1.978-5.588-5.663-5.588-9.617v-9.927a.735.735 0 00-.737-.733z" fill="url(#paint1_linear)"/><path d="M11.063 23.281c.599 0 1.162.232 1.585.652L16.5 27.76a.74.74 0 001.043 0l4.22-4.193a.729.729 0 000-1.036.74.74 0 00-1.043 0l-3.698 3.675-3.331-3.308a3.703 3.703 0 00-2.628-1.081c-.992 0-1.926.384-2.627 1.08a3.657 3.657 0 00-1.089 2.612c0 .986.387 1.913 1.089 2.61l5.957 5.919a3.7 3.7 0 002.629 1.082 3.7 3.7 0 002.626-1.082L31.564 22.2a3.654 3.654 0 001.09-2.61 3.66 3.66 0 00-1.09-2.612 3.704 3.704 0 00-2.627-1.08 3.7 3.7 0 00-2.627 1.08l-3.157 3.136a.73.73 0 000 1.036.74.74 0 001.043 0l3.156-3.136c.423-.42.986-.652 1.585-.652a2.237 2.237 0 012.242 2.227c0 .595-.233 1.154-.657 1.575L18.605 33.003a2.23 2.23 0 01-1.583.652c-.6 0-1.163-.232-1.586-.653l-5.958-5.919a2.204 2.204 0 01-.657-1.574c0-.595.234-1.155.658-1.576.423-.42.985-.652 1.584-.652z" fill="url(#paint2_linear)"/><defs><linearGradient id="paint0_linear" x1="20" y1="0" x2="20" y2="50" gradientUnits="userSpaceOnUse"><stop stop-color="#B29457"/><stop offset="1" stop-color="#FBF7C8"/></linearGradient><linearGradient id="paint1_linear" x1="20" y1="0" x2="20" y2="50" gradientUnits="userSpaceOnUse"><stop stop-color="#B29457"/><stop offset="1" stop-color="#FBF7C8"/></linearGradient><linearGradient id="paint2_linear" x1="20" y1="0" x2="20" y2="50" gradientUnits="userSpaceOnUse"><stop stop-color="#B29457"/><stop offset="1" stop-color="#FBF7C8"/></linearGradient></defs></svg>