<svg width="34" height="41" fill="none" xmlns="http://www.w3.org/2000/svg"><path d="M34 7.519c0-.013-.002-.024-.003-.036a6.802 6.802 0 00-.173-1.635C33.031 2.405 29.657 0 25.621 0c-.78 0-1.569.091-2.342.27-2.88.669-5.094 2.377-6.28 4.687C15.815 2.647 13.602.939 10.722.27 9.947.09 9.159 0 8.378 0 4.342 0 .968 2.405.175 5.847a6.822 6.822 0 00-.173 1.621L0 7.483c-.047 7.003 2.266 13.298 4.2 17.003 1.474 2.822 2.945 4.82 3.721 5.792-2.263 2.666-3.088 5.263-3.093 5.284-.543 2.282 2.514 4.276 5.816 5.067a12.88 12.88 0 002.963.371c.559 0 1.086-.046 1.565-.138.828-.16 1.413-.432 1.827-.742.413.31.998.583 1.827.742A8.318 8.318 0 0020.39 41c.924 0 1.936-.125 2.964-.371 3.3-.79 6.359-2.785 5.815-5.067-.005-.021-.648-2.465-3.093-5.284.775-.973 2.247-2.97 3.72-5.792 1.936-3.705 4.25-9.964 4.202-16.967zM31.71 5.55c.095.237.174.481.232.734.729 3.158-1.777 6.446-5.585 7.329a7.385 7.385 0 01-1.666.185c-2.167 0-4.508-.945-5.777-2.408 5.452-.426 10.192-2.591 12.795-5.84zm-7.996-3.392a8.46 8.46 0 011.907-.221c1.992 0 3.768.724 4.95 1.91-2.237 3.217-7.103 5.405-12.57 5.66a3.108 3.108 0 01-.035-.451c0-2.567 1.505-5.915 5.748-6.898zM17.966 20.91l.845.619-.845.618V20.91zm0 5.048l.845.618-.845.619v-1.237zm.845 5.666l-.845.619v-1.238l.845.619zm-2.777.619l-.846-.62.846-.617v1.236zm-.846-5.667l.846-.618v1.237l-.846-.619zm-.014-5.058l.86-.628v1.257l-.86-.629zM8.378 1.937a8.46 8.46 0 011.907.22c4.243.984 5.749 4.332 5.749 6.899 0 .155-.013.307-.036.457C10.545 9.29 5.63 7.121 3.348 3.928c1.18-1.233 2.993-1.991 5.03-1.991zM2.057 6.284c.049-.212.113-.419.189-.62 2.646 3.205 7.407 5.34 12.828 5.739-1.271 1.455-3.605 2.395-5.765 2.395a7.393 7.393 0 01-1.666-.185c-3.809-.883-6.314-4.171-5.586-7.33zM14.809 38.96c-1.008.194-2.327.117-3.715-.215-3.09-.74-4.453-2.206-4.39-2.708.084-.453.978-2.694 3.2-5.077a.971.971 0 00.012-1.31c-.02-.022-2.046-2.3-4.031-6.117-1.35-2.595-2.886-6.32-3.572-10.755 1.246 1.285 2.931 2.267 4.895 2.722.673.156 1.38.235 2.1.235 2.082 0 4.21-.662 5.84-1.816.323-.228.616-.471.886-.725v3.885l-1.916-1.401a.964.964 0 00-1.35.212.97.97 0 00.212 1.353l2.38 1.741-2.38 1.742c-.397.252-.396.815-.396.826a.97.97 0 00.396.759l2.38 1.741-2.38 1.742a.97.97 0 000 1.564l2.38 1.742-2.38 1.741a.97.97 0 000 1.565l2.38 1.742-2.38 1.74a.97.97 0 00.57 1.752.96.96 0 00.568-.186l1.916-1.401v2.31c-.112.21-.513.46-1.225.597zm9.275-9.31a.97.97 0 00.011 1.31c2.225 2.387 3.088 4.75 3.2 5.077.063.501-1.299 1.967-4.39 2.708-1.387.332-2.707.409-3.714.215-.712-.137-1.114-.387-1.225-.597v-2.31l1.915 1.401a.964.964 0 001.35-.212.97.97 0 00-.211-1.353l-2.381-1.741 2.38-1.742a.97.97 0 000-1.564L18.64 29.1l2.4-1.757a.97.97 0 00-.019-1.55l-2.381-1.74s2.155-1.472 2.592-1.954c.358-.396.22-1.037-.211-1.353l-2.395-1.752 2.395-1.751a.968.968 0 00-1.139-1.565l-1.915 1.401v-3.882c.269.253.563.495.884.722 1.63 1.154 3.759 1.816 5.84 1.816h.001a9.31 9.31 0 002.1-.235c1.964-.455 3.65-1.436 4.896-2.722-.687 4.435-2.223 8.16-3.573 10.756-1.985 3.816-4.01 6.094-4.03 6.116z" fill="url(#paint0_linear)"/><defs><linearGradient id="paint0_linear" x1="17" y1="0" x2="17" y2="41" gradientUnits="userSpaceOnUse"><stop stop-color="#B29457"/><stop offset="1" stop-color="#FBF7C8"/></linearGradient></defs></svg>