<svg width="54" height="54" fill="none" xmlns="http://www.w3.org/2000/svg"><path d="M7.223.824L8.1 3.3c.037.106.111.19.205.233l2.187.991c.309.14.309.635 0 .775l-2.187.992a.397.397 0 00-.205.232L7.223 9c-.124.35-.561.35-.685 0l-.875-2.476a.396.396 0 00-.205-.232L3.27 5.299c-.31-.14-.31-.635 0-.775l2.187-.991a.397.397 0 00.205-.233L6.538.824c.124-.35.561-.35.685 0z" fill="url(#paint0_linear)"/><path d="M51.404 9.129l.65 1.836a.294.294 0 00.152.173l1.622.735c.23.104.23.471 0 .575l-1.622.736a.294.294 0 00-.152.172l-.65 1.837c-.092.26-.416.26-.508 0l-.65-1.837a.293.293 0 00-.151-.172l-1.623-.736c-.229-.104-.229-.471 0-.575l1.623-.735a.294.294 0 00.152-.173l.65-1.836c.091-.26.416-.26.507 0z" fill="url(#paint1_linear)"/><path d="M41.328.195l.65 1.836a.294.294 0 00.152.173l1.622.735c.23.104.23.471 0 .575l-1.622.736a.294.294 0 00-.152.172l-.65 1.837c-.092.26-.416.26-.508 0l-.649-1.837a.294.294 0 00-.152-.172l-1.623-.736c-.229-.104-.229-.47 0-.575l1.623-.735a.294.294 0 00.152-.173l.65-1.836c.091-.26.416-.26.507 0z" fill="url(#paint2_linear)"/><path d="M1.912 17.69a1.917 1.917 0 001.911-1.923 1.917 1.917 0 00-1.911-1.923A1.917 1.917 0 000 15.767c0 1.062.856 1.923 1.912 1.923z" fill="url(#paint3_linear)"/><path d="M17.672 4.237a.825.825 0 10-1.628-.265.825.825 0 101.628.265z" fill="url(#paint4_linear)"/><path d="M43.398 14.03c-4.396-4.423-10.24-6.858-16.457-6.858-6.217 0-12.062 2.435-16.457 6.857-4.396 4.423-6.817 10.303-6.817 16.557 0 6.254 2.42 12.134 6.817 16.556C14.879 51.564 20.724 54 26.94 54c6.217 0 12.061-2.435 16.457-6.858 4.396-4.422 6.817-10.302 6.817-16.556 0-6.255-2.42-12.134-6.817-16.557zm-.963 15.684a15.933 15.933 0 010 1.726v-1.726zm-30.86 3.059a15.733 15.733 0 010-4.369v4.369zm2.132-16.945l12.233 2.628V47.03L13.707 44.4V15.828zm8.995-.26a15.38 15.38 0 014.239-.594c1.49 0 2.93.214 4.294.61l-4.23.909-4.303-.925zm5.369 2.888l12.233-2.628v28.573L28.07 47.03V18.456zm11.759-4.719l-6.227 1.338a16.61 16.61 0 00-6.662-1.387c-2.35 0-4.587.489-6.618 1.369l-6.243-1.341a20.953 20.953 0 0112.861-4.4 20.95 20.95 0 0112.889 4.421zM5.798 30.586a21.261 21.261 0 015.777-14.595v7.776a16.875 16.875 0 00-1.431 6.819c0 2.426.512 4.733 1.431 6.82v7.775a21.261 21.261 0 01-5.777-14.595zm7.024 15.818l13.96 3 .018.002.072.012c.01 0 .02.003.03.004a1.088 1.088 0 00.206 0l.03-.004c.025-.004.049-.007.072-.012l.018-.003 13.79-2.963c-3.74 3.366-8.675 5.416-14.077 5.416-5.422 0-10.372-2.065-14.119-5.452zm29.613-1.363v-7.938a16.884 16.884 0 001.303-6.517c0-2.31-.465-4.511-1.303-6.518V16.13a21.26 21.26 0 015.649 14.456 21.26 21.26 0 01-5.649 14.455z" fill="url(#paint5_linear)"/><path d="M37.864 24.057l-7.747 1.66a.643.643 0 00.266 1.259l7.747-1.66a.643.643 0 00-.266-1.259z" fill="url(#paint6_linear)"/><path d="M37.864 29.829l-7.747 1.66a.643.643 0 00.266 1.258l7.747-1.66a.643.643 0 00-.266-1.258z" fill="url(#paint7_linear)"/><path d="M23.923 27.349c.006-.897-.324-1.795-.966-2.589a5.246 5.246 0 00-2.317-1.635l.09-1.18a.642.642 0 00-.589-.69.641.641 0 00-.686.592l-.078 1.024a3.44 3.44 0 00-2.339.728c-.606.474-1.066 1.144-1.353 1.961-.498-.008-.95.34-1.057.849a1.071 1.071 0 00.82 1.271l7.748 1.66a1.065 1.065 0 001.264-.825 1.074 1.074 0 00-.537-1.166zm-6.1-2.734c.541-.424 1.202-.557 1.962-.397.82.172 1.634.678 2.18 1.354.37.458.593.957.659 1.454l-5.665-1.214c.206-.501.502-.914.864-1.197z" fill="url(#paint8_linear)"/><path d="M23.835 35.255l-7.748-1.66a.643.643 0 00-.266 1.258l7.747 1.66a.64.64 0 00.759-.495.643.643 0 00-.492-.763z" fill="url(#paint9_linear)"/><path d="M37.864 35.6l-7.747 1.66a.643.643 0 00.266 1.258l7.747-1.66a.643.643 0 00-.266-1.258z" fill="url(#paint10_linear)"/><defs><linearGradient id="paint0_linear" x1="27" y1="0" x2="27" y2="54" gradientUnits="userSpaceOnUse"><stop stop-color="#B29457"/><stop offset="1" stop-color="#FBF7C8"/></linearGradient><linearGradient id="paint1_linear" x1="27" y1="0" x2="27" y2="54" gradientUnits="userSpaceOnUse"><stop stop-color="#B29457"/><stop offset="1" stop-color="#FBF7C8"/></linearGradient><linearGradient id="paint2_linear" x1="27" y1="0" x2="27" y2="54" gradientUnits="userSpaceOnUse"><stop stop-color="#B29457"/><stop offset="1" stop-color="#FBF7C8"/></linearGradient><linearGradient id="paint3_linear" x1="27" y1="0" x2="27" y2="54" gradientUnits="userSpaceOnUse"><stop stop-color="#B29457"/><stop offset="1" stop-color="#FBF7C8"/></linearGradient><linearGradient id="paint4_linear" x1="27" y1="0" x2="27" y2="54" gradientUnits="userSpaceOnUse"><stop stop-color="#B29457"/><stop offset="1" stop-color="#FBF7C8"/></linearGradient><linearGradient id="paint5_linear" x1="27" y1="0" x2="27" y2="54" gradientUnits="userSpaceOnUse"><stop stop-color="#B29457"/><stop offset="1" stop-color="#FBF7C8"/></linearGradient><linearGradient id="paint6_linear" x1="27" y1="0" x2="27" y2="54" gradientUnits="userSpaceOnUse"><stop stop-color="#B29457"/><stop offset="1" stop-color="#FBF7C8"/></linearGradient><linearGradient id="paint7_linear" x1="27" y1="0" x2="27" y2="54" gradientUnits="userSpaceOnUse"><stop stop-color="#B29457"/><stop offset="1" stop-color="#FBF7C8"/></linearGradient><linearGradient id="paint8_linear" x1="27" y1="0" x2="27" y2="54" gradientUnits="userSpaceOnUse"><stop stop-color="#B29457"/><stop offset="1" stop-color="#FBF7C8"/></linearGradient><linearGradient id="paint9_linear" x1="27" y1="0" x2="27" y2="54" gradientUnits="userSpaceOnUse"><stop stop-color="#B29457"/><stop offset="1" stop-color="#FBF7C8"/></linearGradient><linearGradient id="paint10_linear" x1="27" y1="0" x2="27" y2="54" gradientUnits="userSpaceOnUse"><stop stop-color="#B29457"/><stop offset="1" stop-color="#FBF7C8"/></linearGradient></defs></svg>