<svg width="14" height="18" viewBox="0 0 14 18" fill="none" xmlns="http://www.w3.org/2000/svg">
<path fill-rule="evenodd" clip-rule="evenodd" d="M7.00082 1.51866C3.99393 1.51866 1.55637 3.89538 1.55637 6.834C1.55637 8.98291 2.53715 11.0711 3.75204 12.8099C4.93193 14.5109 6.28526 15.8169 7.00082 16.4548C7.71637 15.8169 9.0697 14.5109 10.2496 12.8099C11.4645 11.0711 12.4453 8.98291 12.4453 6.834C12.4453 3.89538 10.0077 1.51866 7.00082 1.51866ZM0 6.834C0 3.06011 3.13367 0 7 0C10.8663 0 14 3.06011 14 6.834C14 9.41574 12.8326 11.8 11.536 13.668C10.2324 15.536 8.74689 16.9559 7.99556 17.6241C7.427 18.1253 6.573 18.1253 6.00445 17.6241C5.25311 16.9559 3.76756 15.536 2.464 13.668C1.16744 11.8 0 9.41574 0 6.834ZM7 5.31534C6.14133 5.31534 5.44444 5.99874 5.44444 6.83401C5.44444 7.66927 6.14133 8.35267 7 8.35267C7.85866 8.35267 8.55555 7.66927 8.55555 6.83401C8.55555 5.99874 7.85866 5.31534 7 5.31534ZM3.88886 6.834C3.88886 5.15587 5.28186 3.79666 6.99997 3.79666C8.71809 3.79666 10.1111 5.15587 10.1111 6.834C10.1111 8.51212 8.71809 9.87133 6.99997 9.87133C5.28186 9.87133 3.88886 8.51212 3.88886 6.834Z" fill="url(#paint0_linear)"/>
<defs>
<linearGradient id="paint0_linear" x1="7" y1="0" x2="7" y2="18" gradientUnits="userSpaceOnUse">
<stop stop-color="#B29457"/>
<stop offset="1" stop-color="#FBF7C8"/>
</linearGradient>
</defs>
</svg>
