<svg width="54" height="54" viewBox="0 0 54 54" fill="none" xmlns="http://www.w3.org/2000/svg">
<path d="M7.22314 0.824155L8.09853 3.30049C8.13597 3.40649 8.21022 3.49052 8.30388 3.53296L10.4908 4.52418C10.7997 4.66423 10.7997 5.15942 10.4908 5.29947L8.30388 6.29069C8.21022 6.33313 8.13608 6.41716 8.09853 6.52316L7.22314 8.9995C7.09942 9.34932 6.66204 9.34932 6.53843 8.9995L5.66304 6.52316C5.6256 6.41716 5.55135 6.33313 5.45769 6.29069L3.2708 5.29947C2.96178 5.15942 2.96178 4.66423 3.2708 4.52418L5.45769 3.53296C5.55135 3.49052 5.62549 3.40649 5.66304 3.30049L6.53843 0.824155C6.66204 0.474333 7.09942 0.474333 7.22314 0.824155Z" fill="url(#paint0_linear)"/>
<path d="M51.4042 9.12852L52.0536 10.9654C52.0814 11.044 52.1364 11.1064 52.2059 11.1378L53.8281 11.8731C54.0573 11.977 54.0573 12.3443 53.8281 12.4482L52.2059 13.1835C52.1364 13.215 52.0814 13.2772 52.0536 13.3559L51.4042 15.1927C51.3125 15.4523 50.9881 15.4523 50.8963 15.1927L50.2469 13.3559C50.2191 13.2772 50.1641 13.2149 50.0946 13.1835L48.4724 12.4482C48.2432 12.3443 48.2432 11.977 48.4724 11.8731L50.0946 11.1378C50.1641 11.1063 50.2191 11.044 50.2469 10.9654L50.8963 9.12852C50.9881 8.86899 51.3125 8.86899 51.4042 9.12852Z" fill="url(#paint1_linear)"/>
<path d="M41.3283 0.194646L41.9776 2.0315C42.0055 2.11012 42.0605 2.17251 42.1299 2.20392L43.7522 2.93921C43.9813 3.04309 43.9813 3.41042 43.7522 3.51429L42.1299 4.24958C42.0604 4.2811 42.0055 4.34338 41.9776 4.422L41.3283 6.25886C41.2365 6.51838 40.9121 6.51838 40.8203 6.25886L40.171 4.422C40.1431 4.34338 40.0882 4.28099 40.0187 4.24958L38.3964 3.51429C38.1673 3.41042 38.1673 3.04309 38.3964 2.93921L40.0187 2.20392C40.0882 2.17241 40.1431 2.11012 40.171 2.0315L40.8203 0.194646C40.9121 -0.064882 41.2365 -0.064882 41.3283 0.194646Z" fill="url(#paint2_linear)"/>
<path d="M1.91152 17.69C2.96722 17.69 3.82303 16.829 3.82303 15.767C3.82303 14.7049 2.96722 13.8439 1.91152 13.8439C0.855815 13.8439 0 14.7049 0 15.767C0 16.829 0.855815 17.69 1.91152 17.69Z" fill="url(#paint3_linear)"/>
<path d="M17.6717 4.2371C17.7446 3.78492 17.4393 3.35894 16.9898 3.28564C16.5403 3.21234 16.1169 3.51948 16.044 3.97165C15.9712 4.42382 16.2765 4.8498 16.7259 4.9231C17.1754 4.9964 17.5988 4.68927 17.6717 4.2371Z" fill="url(#paint4_linear)"/>
<path d="M43.3983 14.0294C39.0024 9.60704 33.1578 7.17155 26.941 7.17155C20.7241 7.17155 14.8794 9.60704 10.4836 14.0294C6.08766 18.4518 3.66673 24.3316 3.66673 30.5857C3.66673 36.8399 6.08755 42.7198 10.4836 47.1421C14.8794 51.5645 20.7241 54 26.941 54C33.1578 54 39.0025 51.5645 43.3983 47.1421C47.7942 42.7198 50.2152 36.84 50.2152 30.5857C50.2152 24.3315 47.7944 18.4518 43.3983 14.0294ZM42.4352 29.7143C42.451 30.0028 42.4591 30.2933 42.4591 30.5857C42.4591 30.8725 42.4505 31.1574 42.4352 31.4404V29.7143ZM11.5755 32.7729C11.4752 32.058 11.4228 31.328 11.4228 30.5857C11.4228 29.8453 11.4758 29.1173 11.5755 28.4041V32.7729ZM13.7069 15.8282L25.9396 18.4565V47.0298L13.7069 44.4015V15.8282ZM22.7017 15.5682C24.0497 15.1823 25.4716 14.9744 26.941 14.9744C28.4304 14.9744 29.8709 15.1877 31.235 15.5841L27.0053 16.4929L22.7017 15.5682ZM28.0709 18.4565L40.3037 15.8282V44.4015L28.0709 47.0298V18.4565ZM39.83 13.7374L33.6031 15.0753C31.5595 14.1832 29.3068 13.6878 26.941 13.6878C24.5918 13.6878 22.3544 14.1766 20.3225 15.057L14.08 13.7158C17.6458 10.958 22.1059 9.31568 26.941 9.31568C31.7886 9.31568 36.2595 10.9666 39.83 13.7374ZM5.79804 30.5857C5.79804 24.9406 7.99601 19.8027 11.5755 15.9909V23.7666C10.6563 25.8533 10.144 28.1602 10.144 30.5857C10.144 33.0116 10.6564 35.3188 11.5755 37.4059V45.1805C7.99612 41.3688 5.79804 36.2308 5.79804 30.5857ZM12.8224 46.4039L26.7826 49.4034C26.7884 49.4047 26.7942 49.405 26.7999 49.4062C26.8237 49.4108 26.8476 49.4145 26.8717 49.4176C26.8821 49.4189 26.8924 49.4207 26.9029 49.4217C26.9368 49.4249 26.9709 49.4271 27.0052 49.4271C27.0395 49.4271 27.0735 49.4249 27.1075 49.4217C27.1179 49.4207 27.1283 49.4189 27.1387 49.4176C27.1628 49.4145 27.1867 49.4108 27.2104 49.4062C27.2162 49.405 27.2219 49.4047 27.2277 49.4034L41.0186 46.4404C37.2773 49.8061 32.3429 51.8558 26.9408 51.8558C21.5193 51.8558 16.5685 49.7913 12.8224 46.4039ZM42.4352 45.0414V37.1029C43.2726 35.0962 43.7379 32.895 43.7379 30.5857C43.7379 28.2763 43.2728 26.0746 42.4352 24.0678V16.13C45.9382 19.9274 48.0839 25.0088 48.0839 30.5857C48.0839 36.1626 45.9382 41.2441 42.4352 45.0414Z" fill="url(#paint5_linear)"/>
<path d="M37.8638 24.0574L30.1165 25.7174C29.7711 25.7914 29.5508 26.133 29.6244 26.4806C29.6884 26.7829 29.9538 26.99 30.2491 26.99C30.2932 26.99 30.3381 26.9853 30.3829 26.9757L38.1302 25.3157C38.4757 25.2417 38.696 24.9001 38.6224 24.5526C38.5489 24.205 38.2087 23.9833 37.8638 24.0574Z" fill="url(#paint6_linear)"/>
<path d="M37.8638 29.8286L30.1165 31.4887C29.7711 31.5626 29.5508 31.9043 29.6244 32.2519C29.6884 32.5541 29.9538 32.7613 30.2491 32.7613C30.2932 32.7613 30.3381 32.7566 30.3829 32.7469L38.1302 31.0868C38.4757 31.0129 38.696 30.6712 38.6224 30.3237C38.5489 29.9762 38.2087 29.7545 37.8638 29.8286Z" fill="url(#paint7_linear)"/>
<path d="M23.9232 27.3486C23.9294 26.4524 23.5986 25.5539 22.9574 24.7602C22.3536 24.0131 21.5309 23.4374 20.6399 23.1251L20.7298 21.9449C20.7568 21.5906 20.4932 21.2814 20.1411 21.2544C19.7907 21.2265 19.4818 21.4923 19.4547 21.8467L19.3766 22.8715C18.507 22.8286 17.7082 23.0746 17.038 23.5988C16.4318 24.073 15.9724 24.7431 15.6855 25.56C15.1869 25.5524 14.7359 25.8992 14.628 26.4086C14.5054 26.9877 14.8727 27.5571 15.4483 27.6805L23.1958 29.3405C23.2706 29.3565 23.3452 29.3642 23.4188 29.3642C23.911 29.3642 24.3534 29.019 24.46 28.5151C24.5611 28.0384 24.3294 27.5687 23.9232 27.3486ZM17.8231 24.6146C18.3644 24.1911 19.025 24.0577 19.7853 24.2178C20.6046 24.3904 21.4193 24.8965 21.965 25.5718C22.3356 26.0304 22.5585 26.5289 22.6238 27.0258L16.9595 25.812C17.1654 25.3106 17.4609 24.8979 17.8231 24.6146Z" fill="url(#paint8_linear)"/>
<path d="M23.8348 35.2551L16.0874 33.595C15.7412 33.521 15.4023 33.7427 15.3288 34.0901C15.2552 34.4376 15.4755 34.7792 15.821 34.8532L23.5684 36.5133C23.6133 36.5229 23.6581 36.5276 23.7022 36.5276C23.9975 36.5276 24.263 36.3205 24.3269 36.0182C24.4005 35.6707 24.1802 35.3291 23.8348 35.2551Z" fill="url(#paint9_linear)"/>
<path d="M37.8638 35.5997L30.1165 37.2598C29.7711 37.3338 29.5508 37.6754 29.6244 38.023C29.6884 38.3253 29.9538 38.5324 30.2491 38.5324C30.2932 38.5324 30.3381 38.5277 30.3829 38.5181L38.1302 36.858C38.4757 36.784 38.696 36.4424 38.6224 36.0948C38.5489 35.7473 38.2087 35.5253 37.8638 35.5997Z" fill="url(#paint10_linear)"/>
<defs>
<linearGradient id="paint0_linear" x1="27" y1="0" x2="27" y2="54" gradientUnits="userSpaceOnUse">
<stop stop-color="#B29457"/>
<stop offset="1" stop-color="#FBF7C8"/>
</linearGradient>
<linearGradient id="paint1_linear" x1="27" y1="0" x2="27" y2="54" gradientUnits="userSpaceOnUse">
<stop stop-color="#B29457"/>
<stop offset="1" stop-color="#FBF7C8"/>
</linearGradient>
<linearGradient id="paint2_linear" x1="27" y1="0" x2="27" y2="54" gradientUnits="userSpaceOnUse">
<stop stop-color="#B29457"/>
<stop offset="1" stop-color="#FBF7C8"/>
</linearGradient>
<linearGradient id="paint3_linear" x1="27" y1="0" x2="27" y2="54" gradientUnits="userSpaceOnUse">
<stop stop-color="#B29457"/>
<stop offset="1" stop-color="#FBF7C8"/>
</linearGradient>
<linearGradient id="paint4_linear" x1="27" y1="0" x2="27" y2="54" gradientUnits="userSpaceOnUse">
<stop stop-color="#B29457"/>
<stop offset="1" stop-color="#FBF7C8"/>
</linearGradient>
<linearGradient id="paint5_linear" x1="27" y1="0" x2="27" y2="54" gradientUnits="userSpaceOnUse">
<stop stop-color="#B29457"/>
<stop offset="1" stop-color="#FBF7C8"/>
</linearGradient>
<linearGradient id="paint6_linear" x1="27" y1="0" x2="27" y2="54" gradientUnits="userSpaceOnUse">
<stop stop-color="#B29457"/>
<stop offset="1" stop-color="#FBF7C8"/>
</linearGradient>
<linearGradient id="paint7_linear" x1="27" y1="0" x2="27" y2="54" gradientUnits="userSpaceOnUse">
<stop stop-color="#B29457"/>
<stop offset="1" stop-color="#FBF7C8"/>
</linearGradient>
<linearGradient id="paint8_linear" x1="27" y1="0" x2="27" y2="54" gradientUnits="userSpaceOnUse">
<stop stop-color="#B29457"/>
<stop offset="1" stop-color="#FBF7C8"/>
</linearGradient>
<linearGradient id="paint9_linear" x1="27" y1="0" x2="27" y2="54" gradientUnits="userSpaceOnUse">
<stop stop-color="#B29457"/>
<stop offset="1" stop-color="#FBF7C8"/>
</linearGradient>
<linearGradient id="paint10_linear" x1="27" y1="0" x2="27" y2="54" gradientUnits="userSpaceOnUse">
<stop stop-color="#B29457"/>
<stop offset="1" stop-color="#FBF7C8"/>
</linearGradient>
</defs>
</svg>
