<svg width="48" height="27" viewBox="0 0 48 27" fill="none" xmlns="http://www.w3.org/2000/svg">
<path d="M0.0378121 10.48C0.109223 10.1789 0.263092 9.87638 0.500422 9.63882C1.48288 8.65659 11.4453 0 16.1395 0C18.6945 0 20.4464 1.29053 21.854 2.32744C22.6996 2.95051 23.4299 3.48832 23.9864 3.48899C24.5457 3.48832 25.2757 2.95051 26.1217 2.327C27.5293 1.29009 29.281 0 31.8361 0C36.5307 0 46.4925 8.65659 47.4747 9.63882C47.7316 9.89602 47.899 10.2161 47.9617 10.5578L47.9988 10.9821C48.0177 11.4516 47.8344 11.9077 47.4747 12.2676C46.9981 12.7442 46.392 13.4952 45.6896 14.3661C43.9032 16.5803 41.4572 19.6124 37.9926 22.1233C33.5976 25.3085 28.911 26.9235 24.0627 26.9235C19.2173 26.9235 14.4678 25.2374 9.94633 21.9114C6.41059 19.3109 3.86936 16.1631 2.18785 14.0801C1.56802 13.3123 0.228502 11.6829 0.125849 11.4801C0.0311175 11.2941 -0.0504476 10.853 0.0378121 10.48ZM11.2683 20.1137C15.3986 23.1518 19.7031 24.6919 24.0625 24.6919C28.4304 24.6919 32.6766 23.2197 36.683 20.3163C39.9064 17.9798 44.6336 12.7231 44.365 12.4545C44.2748 12.3643 42.2496 13.3673 41.2134 13.8516C37.0692 15.7892 30.8063 18.717 24.0625 18.717C17.1354 18.717 10.785 15.7174 6.58264 13.7322C5.56905 13.2535 3.76414 12.3172 3.73948 12.4495C3.69585 12.6814 7.96545 17.6845 11.2683 20.1137ZM38.754 12.5333C38.754 12.3175 27.0626 11.3171 24.5335 11.3031C24.1752 11.3014 23.8165 11.3004 23.4575 11.3004C20.7328 11.3004 9.17397 12.2061 9.17397 12.4824C9.17397 12.8663 18.4568 16.4858 24.0625 16.4858C29.5596 16.4856 38.754 13.0149 38.754 12.5333ZM4.37503 10.3973C5.62796 10.3973 7.27433 10.3159 9.181 10.2489C10.8061 10.1918 12.739 9.97044 14.7854 9.73568C17.6467 9.40786 20.6052 9.06854 23.4578 9.06854C23.8208 9.06854 24.1835 9.06966 24.5459 9.07133C27.1987 9.08595 30.1242 9.42705 32.9534 9.75699C35.0641 10.003 37.0577 10.2356 38.6911 10.2975C39.7642 10.338 40.5267 10.3775 41.1395 10.4091C41.9794 10.4527 42.586 10.4964 43.4881 10.4964C44.4539 10.4964 44.9527 10.3813 44.6398 10.1137C43.2524 8.9275 41.9149 7.80479 39.6014 6.16378C36.0786 3.66462 33.2482 2.23149 31.8361 2.23149C30.0142 2.23149 28.7082 3.19342 27.445 4.12399C26.3315 4.94433 25.2801 5.71902 23.9864 5.72059C22.6952 5.71902 21.6437 4.94433 20.5302 4.12399C19.2675 3.19342 17.9615 2.23149 16.1394 2.23149C14.727 2.23149 11.8967 3.66462 8.37372 6.16378C6.13186 7.75402 4.46675 8.92762 3.24339 10.1509C2.99122 10.4033 3.44803 10.3973 4.37503 10.3973Z" fill="url(#paint0_linear)"/>
<defs>
<linearGradient id="paint0_linear" x1="24" y1="0" x2="24" y2="26.9235" gradientUnits="userSpaceOnUse">
<stop stop-color="#B29457"/>
<stop offset="1" stop-color="#FBF7C8"/>
</linearGradient>
</defs>
</svg>
