<svg width="34" height="41" viewBox="0 0 34 41" fill="none" xmlns="http://www.w3.org/2000/svg">
<path d="M33.9993 7.51884C33.9992 7.50619 33.9976 7.49508 33.997 7.48307C34.0051 6.9406 33.9504 6.39309 33.8244 5.84751C33.0305 2.40453 29.6569 0 25.6208 0C24.8403 0 24.0523 0.0910365 23.2785 0.270656C20.3982 0.938515 18.1853 2.64651 16.9997 4.9569C15.8139 2.64639 13.601 0.938515 10.7207 0.270656C9.94702 0.0910365 9.15901 0 8.37847 0C4.34234 0 0.968899 2.40453 0.174709 5.84713C0.0500286 6.38792 -0.0050985 6.9304 0.00159919 7.46809C0.00147038 7.47339 0.000697579 7.47791 0.000697579 7.48346C-0.0460574 14.4864 2.26658 20.7809 4.20143 24.486C5.6748 27.3077 7.14648 29.3051 7.92226 30.278C5.65857 32.944 4.83411 35.541 4.82908 35.5622C4.28554 37.8437 7.34329 39.8381 10.6446 40.6287C11.6723 40.8749 12.6839 41 13.6081 41C14.1669 41 14.6937 40.9542 15.1728 40.8621C16.0012 40.7027 16.5861 40.4298 16.9997 40.1201C17.4131 40.4298 17.9981 40.7027 18.8266 40.8621C19.3056 40.9544 19.8323 41 20.391 41C21.3152 41 22.3269 40.8749 23.3545 40.6287C26.6559 39.8381 29.7137 37.8437 29.1701 35.5622C29.165 35.541 28.5223 33.0966 26.0768 30.278C26.8525 29.3052 28.3242 27.3077 29.7977 24.486C31.7328 20.7809 34.0461 14.5218 33.9993 7.51884ZM31.7095 5.55026C31.8054 5.78656 31.884 6.03126 31.9422 6.28371C32.6707 9.44184 30.165 12.7296 26.3565 13.6129C25.8262 13.7357 25.2658 13.798 24.6911 13.798H24.6907C22.5239 13.798 20.1828 12.8528 18.9142 11.3898C24.3662 10.9636 29.1064 8.79877 31.7095 5.55026ZM23.7139 2.15763C24.3451 2.01133 24.9867 1.93695 25.6208 1.93695C27.6133 1.93695 29.3894 2.66124 30.5706 3.84691C28.3336 7.06379 23.468 9.25189 18.0003 9.50692C17.9786 9.35868 17.9657 9.2085 17.9657 9.056C17.9657 6.48851 19.4711 3.14147 23.7139 2.15763ZM17.9657 20.9102L18.8113 21.5286L17.9657 22.1473V20.9102ZM17.9657 25.9578L18.8113 26.5762L17.9657 27.1949V25.9578ZM18.8113 31.6239L17.9657 32.2425V31.0055L18.8113 31.6239ZM16.0337 32.2425L15.188 31.6239L16.0337 31.0055V32.2425ZM15.1881 26.5763L16.0338 25.9579V27.195L15.1881 26.5763ZM15.1738 21.5183L16.0337 20.8896V22.1473L15.1738 21.5183ZM8.37847 1.93695C9.01256 1.93695 9.65412 2.01133 10.2854 2.15763C14.5281 3.14147 16.0337 6.48851 16.0337 9.056C16.0337 9.21083 16.0207 9.36294 15.9984 9.51299C10.5447 9.2896 5.63023 7.12138 3.34864 3.92839C4.52872 2.69455 6.3407 1.93695 8.37847 1.93695ZM2.05702 6.28371C2.10596 6.07155 2.16997 5.86533 2.24571 5.66428C4.89207 8.86902 9.65309 11.0033 15.0736 11.4025C13.8026 12.8582 11.4692 13.798 9.30868 13.798C8.73371 13.798 8.17329 13.7358 7.64276 13.6129C3.83435 12.7296 1.32851 9.44184 2.05702 6.28371ZM14.8085 38.9599C13.8009 39.1538 12.4818 39.0774 11.0936 38.7447C8.00353 38.0048 6.64145 36.539 6.70379 36.0373C6.78816 35.5838 7.68243 33.3432 9.90387 30.9599C10.2458 30.5929 10.2509 30.0242 9.91598 29.6507C9.89588 29.6279 7.87009 27.3501 5.88487 23.5334C4.53516 20.9381 2.99881 17.2131 2.31282 12.7778C3.55923 14.0633 5.24447 15.0447 7.20753 15.4998C7.88052 15.656 8.58739 15.7349 9.30868 15.7349C11.3902 15.7349 13.5189 15.0731 15.1489 13.9189C15.4709 13.6909 15.7642 13.4478 16.0337 13.1938V17.0788L14.1181 15.6778C13.687 15.3626 13.0828 15.4574 12.7684 15.8897C12.4541 16.3217 12.5486 16.9275 12.9797 17.2427L15.3607 18.9841L12.9797 20.7256C12.5828 20.9775 12.5837 21.5408 12.5842 21.5523C12.5917 21.8426 12.7276 22.1265 12.9797 22.3107L15.3605 24.0521L12.9797 25.7935C12.9008 25.8513 12.8291 25.9219 12.7684 26.0052C12.4541 26.4373 12.5486 27.0433 12.9797 27.3583L15.3605 29.0998L12.9797 30.8412C12.9008 30.899 12.8291 30.9696 12.7684 31.0529C12.4541 31.4849 12.5486 32.0909 12.9797 32.406L15.3605 34.1475L12.9797 35.8889C12.5486 36.2041 12.4541 36.81 12.7684 37.2419C12.9576 37.502 13.2516 37.6399 13.5496 37.6399C13.7471 37.6399 13.9463 37.5793 14.1181 37.4538L16.0337 36.0528V38.3625C15.9221 38.5727 15.5209 38.8226 14.8085 38.9599ZM24.0838 29.6501C23.748 30.0234 23.753 30.5924 24.0954 30.9599C26.3203 33.347 27.183 35.7094 27.2954 36.037C27.3584 36.5384 25.9963 38.0044 22.9056 38.7447C21.5177 39.0774 20.1982 39.1538 19.1909 38.9599C18.4785 38.8226 18.0772 38.5727 17.9657 38.3629V36.0532L19.8812 37.4542C20.0529 37.5799 20.2522 37.6403 20.4496 37.6403C20.7477 37.6403 21.0419 37.5024 21.2309 37.2423C21.5453 36.8103 21.4509 36.2045 21.0198 35.8893L18.6388 34.1479L21.0198 32.4064L21.0189 32.4054C21.0979 32.3477 21.1703 32.2783 21.2309 32.1948C21.5453 31.7627 21.4509 31.1569 21.0198 30.8416L18.6388 29.1002C18.6388 29.1002 21.0319 27.3484 21.0385 27.3431C21.1099 27.2884 21.1754 27.2238 21.2309 27.1471C21.5453 26.715 21.4509 26.1093 21.0198 25.7939L18.6388 24.0525C18.6388 24.0525 20.7944 22.5813 21.2309 22.0994C21.5895 21.7035 21.4509 21.0616 21.0198 20.7463L18.6246 18.9945L21.0198 17.243C21.2791 17.0533 21.4167 16.7585 21.4165 16.4597C21.4165 16.2617 21.3561 16.0619 21.2309 15.8899C20.9165 15.4576 20.3122 15.3626 19.8812 15.6783L17.9657 17.0794V13.1967C18.2349 13.4499 18.5292 13.6918 18.8504 13.9193C20.4803 15.0732 22.609 15.7352 24.6906 15.7352C24.6906 15.7352 24.6908 15.7352 24.6911 15.7352C25.4121 15.7352 26.119 15.6563 26.7918 15.5002C28.7549 15.045 30.4403 14.0637 31.6867 12.7782C31.0005 17.2135 29.4643 20.9385 28.1145 23.5338C26.1291 27.3501 24.1035 29.6279 24.0838 29.6501Z" fill="url(#paint0_linear)"/>
<defs>
<linearGradient id="paint0_linear" x1="17" y1="0" x2="17" y2="41" gradientUnits="userSpaceOnUse">
<stop stop-color="#B29457"/>
<stop offset="1" stop-color="#FBF7C8"/>
</linearGradient>
</defs>
</svg>
